<?xml version="1.0" encoding="UTF-8"?>
<!DOCTYPE svg PUBLIC "-//W3C//DTD SVG 1.1//EN" "http://www.w3.org/Graphics/SVG/1.1/DTD/svg11.dtd">
<svg version="1.1" xmlns="http://www.w3.org/2000/svg" xmlns:xlink="http://www.w3.org/1999/xlink" x="0" y="0" width="586" height="96" viewBox="0, 0, 586, 96">
  <defs>
    <clipPath id="Clip_1">
      <path d="M0.06,0.548 L585.894,0.548 L585.894,95.94 L0.06,95.94 z"/>
    </clipPath>
  </defs>
  <g id="Layer_1">
    <path d="M219.873,38.104 C219.971,38.562 220.026,39.052 220.026,39.541 C220.026,43.203 217.057,46.165 213.402,46.165 C209.744,46.165 206.775,43.203 206.775,39.541 C206.775,35.879 209.744,32.911 213.402,32.911 C216.567,32.911 219.209,35.133 219.873,38.104" fill="#D8232A"/>
    <path d="M219.873,54.318 C219.971,54.779 220.026,55.265 220.026,55.758 C220.026,59.419 217.057,62.39 213.402,62.39 C209.744,62.39 206.775,59.419 206.775,55.758 C206.775,52.097 209.744,49.133 213.402,49.133 C216.567,49.133 219.209,51.352 219.873,54.318" fill="#D8232A"/>
    <path d="M240.136,33.132 L240.136,51.169 C240.136,55.488 241.736,57.568 245.695,57.568 C249.694,57.568 251.294,55.528 251.294,51.169 L251.294,33.132 L257.213,33.132 L257.213,51.809 C257.213,58.928 253.094,62.767 245.735,62.767 C238.296,62.767 234.177,58.928 234.177,51.809 L234.177,33.132 L240.136,33.132" fill="#FFFFFE"/>
    <path d="M262.197,40.731 L267.756,40.731 L267.756,43.25 C269.355,41.211 271.515,40.171 274.195,40.171 C278.874,40.171 281.194,42.61 281.194,47.49 L281.194,61.967 L275.515,61.967 L275.515,49.129 C275.515,46.25 274.675,44.89 272.235,44.89 C269.596,44.89 267.876,46.57 267.876,49.37 L267.876,61.967 L262.197,61.967 L262.197,40.731" fill="#FFFFFE"/>
    <path d="M285.784,40.731 L291.463,40.731 L291.463,61.967 L285.784,61.967 z M285.784,33.212 L291.463,33.212 L291.463,38.371 L285.784,38.371 z" fill="#FFFFFE"/>
    <path d="M293.82,40.731 L300.099,40.731 L304.458,55.968 L308.857,40.731 L314.856,40.731 L307.257,61.967 L301.458,61.967 L293.82,40.731" fill="#FFFFFE"/>
    <path d="M329.649,49.129 C329.57,46.25 328.09,44.73 325.45,44.73 C323.011,44.73 321.531,46.25 321.291,49.129 L329.649,49.129 z M335.249,55.528 C334.089,59.968 330.449,62.687 325.41,62.687 C319.371,62.687 315.412,58.368 315.412,51.209 C315.412,44.25 319.211,39.971 325.33,39.971 C331.809,39.971 335.529,44.05 335.529,51.369 C335.529,51.849 335.529,52.329 335.489,52.849 L321.291,52.849 C321.451,56.169 322.931,57.888 325.69,57.888 C327.61,57.888 328.85,57.168 329.57,55.528 L335.249,55.528" fill="#FFFFFE"/>
    <path d="M339.083,40.731 L344.363,40.731 L344.363,44.37 C345.842,41.451 347.762,40.131 350.481,40.131 C350.762,40.131 351.042,40.131 351.322,40.171 L351.322,45.93 L349.442,45.93 C346.362,45.93 344.763,47.53 344.763,50.729 L344.763,61.967 L339.083,61.967 L339.083,40.731" fill="#FFFFFE"/>
    <path d="M358.682,55.048 C358.762,57.208 360.202,58.248 363.121,58.248 C365.401,58.248 366.601,57.448 366.601,56.129 C366.601,54.289 364.761,54.409 361.001,53.449 C356.002,52.169 353.643,50.65 353.643,47.05 C353.643,42.771 356.922,39.971 362.361,39.971 C368.081,39.971 371.44,42.65 371.64,47.21 L366.121,47.21 C366.041,45.41 364.721,44.37 362.401,44.37 C360.242,44.37 359.202,45.01 359.202,46.33 C359.202,47.81 360.961,47.97 365.001,48.93 C369.92,50.089 372.32,51.449 372.32,55.289 C372.32,60.088 368.88,62.687 362.361,62.687 C356.442,62.687 353.003,59.848 353.003,55.289 C353.003,55.208 353.003,55.129 353.003,55.048 L358.682,55.048" fill="#FFFFFE"/>
    <path d="M375.891,40.731 L381.57,40.731 L381.57,61.967 L375.891,61.967 z M375.891,33.212 L381.57,33.212 L381.57,38.371 L375.891,38.371 z" fill="#FFFFFE"/>
    <path d="M392.629,62.247 C387.95,62.247 386.95,60.647 386.95,56.208 L386.95,44.73 L384.151,44.73 L384.151,40.731 L386.95,40.731 L386.95,34.932 L392.589,34.932 L392.589,40.731 L395.869,40.731 L395.869,44.73 L392.589,44.73 L392.589,56.488 C392.589,57.608 392.949,57.848 394.469,57.848 L395.869,57.848 L395.869,62.128 C394.309,62.167 393.229,62.247 392.629,62.247" fill="#FFFFFE"/>
    <path d="M411.724,49.129 C411.644,46.25 410.165,44.73 407.525,44.73 C405.084,44.73 403.605,46.25 403.365,49.129 L411.724,49.129 z M417.323,55.528 C416.163,59.968 412.524,62.687 407.485,62.687 C401.446,62.687 397.486,58.368 397.486,51.209 C397.486,44.25 401.286,39.971 407.405,39.971 C413.883,39.971 417.603,44.05 417.603,51.369 C417.603,51.849 417.603,52.329 417.563,52.849 L403.365,52.849 C403.525,56.169 405.005,57.888 407.764,57.888 C409.684,57.888 410.924,57.168 411.644,55.528 L417.323,55.528" fill="#FFFFFE"/>
    <path d="M427.305,62.247 C422.625,62.247 421.625,60.647 421.625,56.208 L421.625,44.73 L418.827,44.73 L418.827,40.731 L421.625,40.731 L421.625,34.932 L427.265,34.932 L427.265,40.731 L430.544,40.731 L430.544,44.73 L427.265,44.73 L427.265,56.488 C427.265,57.608 427.625,57.848 429.145,57.848 L430.544,57.848 L430.544,62.128 C428.985,62.167 427.905,62.247 427.305,62.247" fill="#FFFFFE"/>
    <path d="M446.4,49.129 C446.32,46.25 444.84,44.73 442.201,44.73 C439.76,44.73 438.281,46.25 438.041,49.129 L446.4,49.129 z M451.999,55.528 C450.838,59.968 447.2,62.687 442.161,62.687 C436.122,62.687 432.162,58.368 432.162,51.209 C432.162,44.25 435.961,39.971 442.081,39.971 C448.559,39.971 452.279,44.05 452.279,51.369 C452.279,51.849 452.279,52.329 452.239,52.849 L438.041,52.849 C438.201,56.169 439.681,57.888 442.44,57.888 C444.36,57.888 445.6,57.168 446.32,55.528 L451.999,55.528" fill="#FFFFFE"/>
    <path d="M461.981,62.247 C457.301,62.247 456.301,60.647 456.301,56.208 L456.301,44.73 L453.502,44.73 L453.502,40.731 L456.301,40.731 L456.301,34.932 L461.941,34.932 L461.941,40.731 L465.22,40.731 L465.22,44.73 L461.941,44.73 L461.941,56.488 C461.941,57.608 462.3,57.848 463.821,57.848 L465.22,57.848 L465.22,62.128 C463.661,62.167 462.581,62.247 461.981,62.247" fill="#FFFFFE"/>
    <path d="M479.982,40.731 L485.661,40.731 L485.661,61.967 L479.982,61.967 z M479.982,33.212 L485.661,33.212 L485.661,38.371 L479.982,38.371 z" fill="#FFFFFE"/>
    <path d="M515.38,57.608 C520.419,57.608 523.458,54.009 523.458,47.61 C523.458,41.211 520.419,37.611 515.38,37.611 C510.38,37.611 507.381,41.211 507.381,47.61 C507.381,54.009 510.38,57.608 515.38,57.608 z M515.38,32.452 C523.978,32.452 529.458,38.331 529.458,47.61 C529.458,56.888 523.978,62.767 515.38,62.767 C506.782,62.767 501.342,56.888 501.342,47.61 C501.342,38.331 506.782,32.452 515.38,32.452" fill="#FFFFFE"/>
    <path d="M537.829,55.048 C537.909,57.208 539.348,58.248 542.268,58.248 C544.547,58.248 545.748,57.448 545.748,56.129 C545.748,54.289 543.908,54.409 540.148,53.449 C535.149,52.169 532.79,50.65 532.79,47.05 C532.79,42.771 536.069,39.971 541.508,39.971 C547.227,39.971 550.586,42.65 550.787,47.21 L545.267,47.21 C545.187,45.41 543.868,44.37 541.547,44.37 C539.388,44.37 538.348,45.01 538.348,46.33 C538.348,47.81 540.108,47.97 544.147,48.93 C549.067,50.089 551.466,51.449 551.466,55.289 C551.466,60.088 548.027,62.687 541.508,62.687 C535.588,62.687 532.149,59.848 532.149,55.289 C532.149,55.208 532.149,55.129 532.149,55.048 L537.829,55.048" fill="#FFFFFE"/>
    <path d="M555.078,33.212 L560.756,33.212 L560.756,61.967 L555.078,61.967 z" fill="#FFFFFE"/>
    <path d="M575.136,57.928 C578.295,57.928 580.095,55.568 580.095,51.329 C580.095,47.09 578.295,44.77 575.136,44.77 C571.976,44.77 570.137,47.09 570.137,51.329 C570.137,55.568 571.976,57.928 575.136,57.928 z M575.136,39.971 C581.815,39.971 585.894,44.25 585.894,51.329 C585.894,58.408 581.815,62.687 575.136,62.687 C568.458,62.687 564.377,58.408 564.377,51.329 C564.377,44.25 568.458,39.971 575.136,39.971" fill="#FFFFFE"/>
    <path d="M147.73,51.672 C147.73,53.649 147.497,55.322 147.031,56.694 C146.563,58.068 145.851,59.18 144.89,60.03 C143.93,60.884 142.729,61.498 141.286,61.883 C139.848,62.266 138.138,62.457 136.163,62.457 C134.486,62.457 132.956,62.274 131.571,61.904 C130.184,61.533 128.996,60.936 128.009,60.112 C127.021,59.29 126.252,58.22 125.704,56.904 C125.154,55.583 124.88,53.963 124.88,52.044 L124.88,34.999 L121.587,34.382 L121.587,33.145 L131.796,33.145 L131.796,34.382 L128.503,34.999 L128.503,53.401 C128.503,55.679 129.217,57.471 130.644,58.776 C132.071,60.078 134.17,60.73 136.943,60.73 C139.854,60.73 141.958,60.056 143.263,58.71 C144.566,57.368 145.219,55.242 145.219,52.332 L145.219,34.999 L141.926,34.382 L141.926,33.145 L151.023,33.145 L151.023,34.382 L147.73,34.999 L147.73,51.672" fill="#FFFFFE"/>
    <path d="M160.137,44.26 L160.137,60.112 L163.43,60.73 L163.43,61.966 L153.672,61.966 L153.672,60.73 L156.966,60.112 L156.966,43.85 L153.672,42.615 L153.672,41.915 L160.137,40.885 L160.301,40.97 L160.137,44.26" fill="#FFFFFE"/>
    <path d="M187.784,37.633 C186.137,35.465 183.817,34.382 180.826,34.382 C177.778,34.382 175.435,35.43 173.785,37.528 C172.138,39.631 171.316,42.93 171.316,47.432 C171.316,51.987 172.124,55.345 173.744,57.497 C175.364,59.653 177.695,60.73 180.744,60.73 C183.791,60.73 186.137,59.676 187.784,57.56 C189.431,55.446 190.254,52.153 190.254,47.679 C190.254,43.15 189.431,39.801 187.784,37.633 z M190.748,58.633 C188.359,61.183 184.971,62.457 180.579,62.457 C176.38,62.457 173.104,61.218 170.759,58.733 C168.412,56.25 167.239,52.606 167.239,47.803 C167.239,45.305 167.561,43.108 168.207,41.215 C168.852,39.321 169.764,37.742 170.945,36.479 C172.124,35.215 173.56,34.265 175.247,33.62 C176.936,32.975 178.822,32.65 180.907,32.65 C182.995,32.65 184.866,32.968 186.527,33.597 C188.188,34.229 189.596,35.168 190.748,36.419 C191.899,37.669 192.786,39.211 193.404,41.05 C194.021,42.89 194.329,45.019 194.329,47.432 C194.329,52.344 193.137,56.08 190.748,58.633" fill="#FFFFFE"/>
    <g clip-path="url(#Clip_1)">
      <path d="M156.531,34.829 C156.531,35.431 156.73,35.933 157.128,36.33 C157.525,36.729 158.027,36.927 158.63,36.927 C159.234,36.927 159.743,36.729 160.154,36.33 C160.566,35.933 160.772,35.431 160.772,34.829 C160.772,34.226 160.566,33.716 160.154,33.304 C159.743,32.89 159.234,32.688 158.63,32.688 C158.027,32.688 157.525,32.89 157.128,33.304 C156.73,33.716 156.531,34.226 156.531,34.829" fill="#FFFFFE"/>
      <path d="M47.722,0.548 C21.368,0.548 0,21.92 0,48.276 C0,74.632 21.368,96 47.722,96 C74.083,96 95.451,74.632 95.451,48.276 C95.451,21.92 74.083,0.548 47.722,0.548" fill="#D8232A"/>
    </g>
    <path d="M2.351,48.276 C2.351,60.806 7.43,72.146 15.641,80.358 C23.853,88.57 35.193,93.649 47.722,93.649 C60.254,93.647 71.596,88.57 79.809,80.358 C88.021,72.146 93.098,60.806 93.098,48.276 C93.098,35.747 88.021,24.404 79.809,16.191 C71.596,7.98 60.253,2.899 47.722,2.899 C33.627,2.899 21.036,9.328 12.712,19.414 C6.239,27.26 2.351,37.312 2.351,48.276 z M1.667,48.276 C1.666,37.15 5.614,26.939 12.184,18.979 C20.63,8.741 33.416,2.215 47.722,2.215 C73.162,2.215 93.783,22.841 93.784,48.276 C93.783,73.711 73.162,94.333 47.722,94.334 C22.288,94.333 1.667,73.711 1.667,48.276" fill="#FFFFFE"/>
    <path d="M11.787,66.96 C11.794,66.358 12.287,65.876 12.889,65.884 C13.491,65.891 13.974,66.384 13.966,66.986 C13.96,67.588 13.465,68.07 12.864,68.064 C12.262,68.056 11.78,67.563 11.787,66.96" fill="#FFFFFE"/>
    <path d="M81.107,67.61 C81.114,67.009 81.608,66.526 82.21,66.534 C82.812,66.541 83.294,67.034 83.287,67.636 C83.28,68.238 82.786,68.721 82.185,68.713 C81.583,68.706 81.1,68.213 81.107,67.61" fill="#FFFFFE"/>
    <path d="M78.598,61.32 C76.909,65.298 74.504,68.87 71.433,71.942 C68.364,75.008 64.792,77.419 60.812,79.104 C59.247,79.767 57.644,80.304 56.012,80.716 L55.973,80.05 C55.973,79.65 55.52,79.448 55.271,79.448 L53.835,79.471 C53.835,79.471 53.392,79.363 53.339,79.347 C53.285,79.33 53.298,79.273 53.307,79.263 C53.408,79.141 53.414,78.964 53.315,78.835 L52.219,77.405 L52.254,76.389 C55.477,76.31 57.85,75.086 58.958,74.278 C60.046,73.473 60.116,72.242 60.118,71.877 C60.118,71.824 60.116,71.788 60.116,71.773 L60.083,68.917 C60.093,68.912 60.104,68.91 60.114,68.904 L60.113,68.903 L63.167,67.19 C63.285,67.123 63.353,66.995 63.341,66.859 L61.336,44.517 C61.423,44.486 61.708,44.389 62.027,44.269 C62.417,44.119 62.829,43.96 63.073,43.801 C63.292,43.646 64.212,42.873 64.434,42.643 C64.627,42.437 64.701,42.171 64.699,41.936 C64.695,41.567 64.554,41.24 64.411,40.981 C64.284,40.764 64.111,40.585 63.923,40.431 C64.344,39.493 64.557,38.453 64.557,37.379 C64.557,35.505 64.109,34.03 63.677,32.635 C63.243,31.237 62.828,29.92 62.828,28.298 C62.828,25.286 62.859,23.498 62.859,23.494 C62.86,23.402 62.825,23.313 62.761,23.248 C62.697,23.183 62.608,23.146 62.517,23.146 C61.505,23.142 60.877,23.477 60.533,23.849 C60.372,24.022 60.273,24.196 60.213,24.336 L54.034,24.336 C53.973,24.182 53.873,23.982 53.706,23.779 C53.372,23.366 52.744,22.969 51.765,22.974 C51.673,22.974 51.586,23.01 51.521,23.075 C51.457,23.14 51.421,23.228 51.422,23.319 C51.422,23.324 51.441,25.591 51.44,28.769 C51.442,29.019 51.43,29.266 51.409,29.511 C51.283,29.311 51.146,29.111 51.001,28.922 C50.619,28.432 50.217,28 49.721,27.837 C49.273,27.7 48.611,27.494 47.834,27.257 C47.549,27.167 47.431,27.036 47.351,26.893 C47.304,26.808 47.278,26.713 47.264,26.624 L47.642,26.632 L47.661,26.632 C48.002,26.62 48.294,26.575 48.542,26.473 C48.787,26.374 49.012,26.189 49.095,25.916 C49.137,25.776 49.151,25.643 49.151,25.523 C49.15,25.389 49.134,25.271 49.117,25.186 L49.279,24.9 C49.332,24.808 49.338,24.697 49.299,24.603 C49.373,24.533 49.413,24.433 49.407,24.329 L49.383,23.978 C49.399,23.975 49.417,23.972 49.434,23.969 C49.538,23.949 49.646,23.925 49.759,23.874 C49.815,23.847 49.876,23.814 49.939,23.751 C50.002,23.691 50.07,23.577 50.069,23.444 C50.067,23.352 50.048,23.133 50.019,22.789 C49.945,21.945 49.811,20.515 49.769,20.07 C49.909,19.882 50.149,19.496 50.16,18.994 C50.161,18.671 50.066,18.29 49.771,17.992 C49.484,17.701 49.038,17.53 48.439,17.523 C48.174,17.453 46.792,17.086 46.392,17.026 C46.094,16.984 45.696,16.915 45.227,16.915 C44.428,16.912 43.417,17.128 42.32,17.977 C40.902,19.094 40.786,21.094 40.776,21.983 C40.776,22.155 40.782,22.288 40.787,22.366 C40.74,22.509 40.668,22.804 40.668,23.273 C40.668,23.531 40.689,23.841 40.748,24.208 C40.886,25.097 41.436,25.633 41.92,25.909 C42.166,26.051 42.399,26.136 42.572,26.186 L42.572,26.837 C42.303,26.973 40.594,27.724 38.951,28.855 C38.917,28.887 38.781,28.964 38.654,29.108 C38.651,29.111 38.646,29.113 38.644,29.116 L20.178,47.787 C20.113,47.853 20.077,47.944 20.08,48.037 C20.082,48.13 20.123,48.219 20.191,48.281 C20.194,48.283 21.464,49.438 22.873,50.728 C23.224,51.049 23.583,51.378 23.934,51.7 L20.549,56.343 C20.264,56.706 20.081,57.232 20.082,57.933 C20.086,59.35 20.788,61.502 22.938,64.851 C25.392,68.664 27.271,70.423 27.963,71.001 L27.07,72.027 C27.04,72.06 26.753,72.362 26.458,72.753 C26.303,72.956 26.146,73.184 26.023,73.413 C25.993,73.471 25.964,73.526 25.938,73.583 C25.333,73.059 24.744,72.512 24.172,71.94 C21.105,68.87 18.697,65.298 17.017,61.32 C15.27,57.205 14.386,52.827 14.386,48.31 C14.386,43.802 15.27,39.428 17.017,35.31 C18.697,31.323 21.105,27.753 24.172,24.682 C27.247,21.616 30.815,19.206 34.796,17.521 C38.919,15.781 43.29,14.901 47.807,14.9 C52.316,14.901 56.691,15.781 60.812,17.521 C64.792,19.206 68.364,21.616 71.433,24.682 C74.505,27.753 76.909,31.323 78.599,35.309 C80.337,39.427 81.219,43.802 81.219,48.31 C81.219,52.827 80.337,57.205 78.598,61.32 z M47.659,81.726 C49.617,81.389 51.346,80.747 52.611,79.835 L53.687,80.144 C53.726,80.155 53.767,80.16 53.808,80.158 C53.808,80.158 54.809,80.105 54.892,80.099 C55.177,80.081 55.305,80.249 55.308,80.309 C55.31,80.369 55.316,80.442 55.316,80.442 C55.316,80.442 55.328,80.62 55.211,80.736 C55.104,80.843 54.332,81.057 54.051,81.146 C52.007,81.531 49.922,81.728 47.807,81.728 C47.758,81.728 47.708,81.726 47.659,81.726 z M27.977,72.635 C28.101,72.638 28.238,72.64 28.393,72.641 C31.112,72.64 38.355,72.016 43.633,65.794 C47.977,60.638 49.066,50.796 49.236,49.073 L50.597,48.977 C50.549,49.682 50.428,51.351 50.217,53.608 C49.933,56.634 49.488,60.707 48.841,64.895 C48.194,69.083 47.415,73.234 46.797,76.337 C46.341,78.633 45.974,80.35 45.813,81.091 C45.798,81.157 45.714,81.28 45.555,81.28 C45.178,81.28 44.798,81.315 44.413,81.313 C43.163,81.315 41.874,81.197 40.601,80.951 C39.934,80.805 39.272,80.639 38.615,80.451 C33.894,78.963 31.154,76.86 29.591,75.157 C28.808,74.303 28.32,73.544 28.03,73.003 C27.983,72.916 27.941,72.836 27.905,72.761 C27.865,72.68 27.91,72.633 27.977,72.635 z M28.142,71.839 C28.229,71.74 37.46,61.141 37.46,61.141 C37.495,61.102 37.519,61.056 37.532,61.006 C37.532,61.006 40.264,50.926 40.283,50.854 C40.302,50.784 40.373,50.765 40.373,50.765 C40.373,50.765 45.215,49.439 45.401,49.386 C45.588,49.333 45.856,49.311 45.856,49.311 L48.545,49.121 C48.513,49.435 48.458,49.938 48.369,50.587 C47.912,53.994 46.518,61.347 43.11,65.351 C38.038,71.344 31.021,71.956 28.393,71.955 C28.334,71.955 28.278,71.955 28.225,71.954 C28.125,71.954 28.056,71.939 28.142,71.839 z M55.255,26.645 L55.255,29.318 C55.025,29.446 54.848,29.558 54.751,29.615 C54.442,29.812 54.025,30.186 53.945,30.256 L53.943,30.258 C54.064,29.345 54.149,28.193 54.161,26.645 L55.255,26.645 z M56.811,26.645 L56.811,28.688 C56.511,28.753 56.214,28.857 55.94,28.977 L55.94,26.645 L56.811,26.645 z M58.315,26.645 L58.315,28.749 C58.068,28.657 57.792,28.626 57.496,28.622 L57.496,26.645 L58.315,26.645 z M59.622,31.051 C59.583,30.929 59.506,30.746 59.271,30.667 C59.21,30.649 59.145,30.633 59.084,30.619 C59.083,30.403 59.08,30.103 59.08,29.868 C59.084,29.703 59.055,29.545 59,29.401 L59,26.645 L60.075,26.645 C60.093,29.47 60.339,31.146 60.586,32.362 C60.844,33.63 61.085,34.358 61.085,35.371 C61.085,36.461 60.665,37.499 59.975,38.257 C59.691,38.569 59.362,38.833 59,39.037 L59,32.374 C59.024,32.371 59.05,32.368 59.071,32.366 C59.105,32.363 59.134,32.359 59.156,32.357 C59.177,32.355 59.186,32.356 59.186,32.355 C59.314,32.355 59.404,32.293 59.449,32.249 C59.595,32.087 59.592,31.992 59.631,31.858 C59.657,31.731 59.672,31.588 59.673,31.443 C59.672,31.313 59.662,31.184 59.622,31.051 z M57.496,39.486 L57.496,32.607 C57.811,32.53 58.086,32.46 58.188,32.435 L58.315,32.435 L58.315,39.333 C58.053,39.415 57.78,39.467 57.496,39.486 z M55.94,39.312 L55.94,32.898 C56.001,32.894 56.06,32.892 56.107,32.892 C56.248,32.889 56.391,32.857 56.608,32.813 C56.672,32.8 56.74,32.784 56.811,32.769 L56.811,39.473 C56.513,39.445 56.222,39.391 55.94,39.312 z M53.078,36.219 C53.878,35.237 54.76,34.032 55.255,33.347 L55.255,39.062 C54.913,38.903 54.595,38.705 54.314,38.467 C53.67,37.915 53.216,37.168 53.078,36.219 z M53.212,48.754 L53.461,48.703 C53.62,48.671 53.734,48.53 53.734,48.368 L53.746,43.925 C54.66,44.294 55.723,44.507 56.934,44.507 C56.937,44.507 56.941,44.507 56.945,44.507 C57.722,44.508 58.444,44.421 59.112,44.266 L59.431,71.79 L59.432,71.809 C59.432,71.809 59.433,71.827 59.433,71.877 C59.435,72.159 59.36,73.146 58.553,73.725 C57.553,74.457 55.31,75.622 52.278,75.703 L53.212,48.754 z M41.76,40.832 C41.22,40.09 39.645,37.885 39.113,33.864 C39.15,33.906 39.188,33.948 39.225,33.988 C39.795,34.585 40.441,34.981 40.827,35.18 C44.258,37.019 49.769,39.187 49.775,39.191 C49.778,39.192 49.782,39.192 49.786,39.193 C49.835,39.423 49.898,39.649 49.971,39.874 L44.801,40.191 C44.801,40.191 44.194,40.217 43.756,40.342 C43.228,40.491 42.019,40.834 41.938,40.861 C41.836,40.894 41.778,40.858 41.76,40.832 z M39.655,49.479 C39.655,49.479 41.883,41.779 41.913,41.676 C41.943,41.572 42.046,41.543 42.046,41.543 C42.046,41.543 43.677,41.086 43.936,41.002 C44.196,40.918 44.623,40.887 44.623,40.887 L50.227,40.543 C50.52,41.2 50.92,41.82 51.438,42.366 C51.892,42.846 52.435,43.265 53.063,43.604 C53.063,43.604 53.051,47.865 53.051,47.946 C53.051,48.027 53.011,48.118 52.831,48.133 C52.652,48.148 47.195,48.53 45.835,48.626 C45.642,48.639 45.411,48.673 45.203,48.729 C44.996,48.787 40.244,50.09 40.244,50.09 C40.244,50.09 40.082,50.115 40,50.052 C39.919,49.986 39.877,49.953 39.731,49.837 C39.585,49.721 39.655,49.479 39.655,49.479 z M51.601,77.725 C51.601,77.725 52.489,78.876 52.523,78.928 C52.558,78.98 52.531,79.04 52.506,79.06 C51.162,80.157 48.982,80.925 46.49,81.2 C46.882,79.389 48.396,72.259 49.518,64.999 C50.674,57.514 51.188,50.406 51.287,48.929 C51.287,48.929 52.186,48.87 52.344,48.854 C52.501,48.839 52.52,48.932 52.517,49.027 C52.514,49.124 51.53,77.505 51.53,77.505 C51.527,77.584 51.553,77.662 51.601,77.725 z M62.629,66.599 C62.629,66.599 62.642,66.698 62.562,66.744 C62.481,66.789 60.073,68.141 60.073,68.141 L59.794,44.078 C60.067,43.989 60.33,43.886 60.581,43.771 L62.629,66.599 z M61.624,42.821 C61.439,42.561 61.378,42.384 61.38,42.269 C61.38,42.229 61.386,42.192 61.398,42.15 L61.4,42.15 C61.426,42.086 61.631,41.866 61.814,41.711 C61.999,41.549 62.165,41.424 62.166,41.423 C62.262,41.363 62.324,41.209 62.316,41.117 C62.311,40.98 62.275,40.933 62.254,40.879 C62.23,40.831 62.206,40.789 62.187,40.75 C62.164,40.699 62.149,40.585 62.252,40.483 C62.369,40.365 62.533,40.413 62.568,40.428 C62.693,40.479 62.903,40.574 63.105,40.694 C63.403,40.868 63.703,41.113 63.814,41.318 C63.926,41.512 64.017,41.765 64.013,41.936 C64.012,42.049 63.966,42.136 63.91,42.198 C63.8,42.323 62.794,43.168 62.69,43.232 C62.583,43.309 62.152,43.492 61.787,43.627 C61.68,43.667 61.577,43.705 61.485,43.738 C61.359,43.791 61.339,43.708 61.339,43.708 C61.339,43.708 61.314,43.633 61.364,43.585 C61.421,43.538 61.479,43.485 61.535,43.425 C61.595,43.345 61.684,43.271 61.698,43.057 C61.699,42.984 61.675,42.894 61.624,42.821 z M52.111,23.862 C52.111,23.712 52.163,23.687 52.189,23.69 C52.711,23.773 52.994,23.999 53.177,24.215 C53.29,24.351 53.358,24.488 53.397,24.589 C53.416,24.64 53.429,24.681 53.436,24.707 C53.439,24.721 53.441,24.729 53.442,24.734 L53.443,24.735 C53.471,24.899 53.614,25.021 53.781,25.021 L60.463,25.021 C60.633,25.021 60.776,24.896 60.802,24.729 C60.809,24.695 60.862,24.479 61.076,24.273 C61.255,24.105 61.549,23.923 62.083,23.856 C62.155,23.841 62.167,23.912 62.167,23.976 C62.167,24.683 62.143,26.157 62.143,28.298 C62.143,30.041 62.592,31.446 63.023,32.838 C63.455,34.232 63.872,35.615 63.872,37.379 C63.872,38.322 63.692,39.226 63.344,40.043 C63.037,39.872 62.779,39.768 62.637,39.727 C62.588,39.714 62.54,39.708 62.494,39.708 C62.223,39.72 62.049,39.84 61.876,39.959 C61.708,40.096 61.579,40.191 61.482,40.403 C61.455,40.474 61.444,40.546 61.444,40.612 C61.448,40.8 61.512,40.929 61.561,41.028 C61.49,41.086 61.407,41.155 61.321,41.233 C61.21,41.332 61.094,41.442 60.993,41.556 C60.893,41.673 60.802,41.776 60.745,41.947 C60.712,42.051 60.695,42.159 60.695,42.269 C60.696,42.478 60.754,42.672 60.851,42.864 C59.814,43.466 58.514,43.82 56.945,43.821 C54.659,43.819 53.021,43.035 51.935,41.895 C51.127,41.044 50.625,39.984 50.422,38.888 C50.76,38.603 51.352,38.081 52.103,37.328 C52.23,37.199 52.37,37.048 52.518,36.882 C52.759,37.74 53.241,38.455 53.871,38.988 C54.748,39.733 55.898,40.136 57.089,40.172 C57.11,40.176 57.131,40.179 57.153,40.179 C57.163,40.179 57.171,40.177 57.18,40.176 C57.208,40.177 57.235,40.18 57.263,40.18 C59.837,40.172 61.765,37.896 61.77,35.371 C61.768,34.238 61.504,33.447 61.257,32.226 C61.009,31 60.759,29.3 60.759,26.302 C60.759,26.212 60.722,26.124 60.658,26.061 C60.595,25.996 60.506,25.96 60.416,25.96 L53.819,25.96 C53.729,25.96 53.64,25.996 53.577,26.06 C53.513,26.124 53.476,26.212 53.476,26.302 C53.476,28.447 53.338,29.824 53.161,30.853 L51.611,32.029 C51.734,31.584 51.845,31.132 51.932,30.67 C51.937,30.65 51.941,30.631 51.943,30.61 C52.053,30.016 52.123,29.403 52.126,28.769 C52.126,26.518 52.116,24.721 52.111,23.862 z M41.379,29.085 C41.902,29.083 42.37,29.235 42.642,29.512 C43.087,29.956 43.567,30.562 43.932,31.053 C44.296,31.544 44.544,31.918 44.545,31.919 C44.57,31.957 44.601,31.988 44.639,32.014 L48.743,34.777 C48.865,34.86 49.024,34.855 49.142,34.767 L54.368,30.795 L54.39,30.776 C54.39,30.776 54.506,30.672 54.658,30.545 C54.808,30.419 54.999,30.269 55.116,30.195 C55.388,30.016 56.542,29.332 57.275,29.312 C57.34,29.309 57.402,29.307 57.461,29.307 C57.815,29.305 58.076,29.366 58.205,29.452 C58.329,29.541 58.386,29.612 58.395,29.868 C58.395,30.286 58.402,30.903 58.402,30.903 C58.404,31.069 58.523,31.18 58.687,31.208 C58.815,31.208 58.988,31.245 58.988,31.443 C58.988,31.67 58.833,31.704 58.76,31.713 C58.635,31.729 58.518,31.743 58.469,31.75 L58.146,31.749 L58.06,31.76 C58.059,31.76 57.619,31.874 57.146,31.987 C56.909,32.044 56.665,32.102 56.466,32.143 C56.368,32.163 56.28,32.181 56.213,32.192 C56.18,32.197 56.152,32.202 56.132,32.204 C56.112,32.207 56.107,32.206 56.107,32.207 C55.805,32.208 55.336,32.26 55.329,32.261 C55.232,32.271 55.143,32.324 55.087,32.403 C55.085,32.405 54.508,33.227 53.782,34.195 C53.058,35.163 52.18,36.283 51.619,36.845 C51.036,37.429 50.551,37.87 50.214,38.164 C50.109,38.256 50.018,38.332 49.943,38.395 C49.905,38.427 49.811,38.469 49.714,38.429 C49.212,38.223 48.142,37.794 46.854,37.243 C45.055,36.475 42.831,35.477 41.144,34.573 C40.808,34.401 40.213,34.034 39.721,33.516 C39.668,33.46 39.617,33.401 39.566,33.343 C39.55,33.323 39.534,33.304 39.519,33.285 C39.481,33.239 39.444,33.192 39.409,33.145 C39.382,33.107 39.355,33.069 39.33,33.032 C39.308,33 39.286,32.968 39.265,32.935 C39.241,32.896 39.217,32.858 39.194,32.818 C39.186,32.802 39.177,32.785 39.168,32.77 C39.122,32.687 39.081,32.601 39.044,32.514 C39.038,32.501 39.033,32.489 39.027,32.478 C39.007,32.426 38.987,32.375 38.97,32.323 C38.97,32.322 38.97,32.322 38.97,32.322 C38.969,32.321 38.969,32.32 38.969,32.319 C38.938,32.228 38.914,32.134 38.894,32.037 C38.885,31.996 38.877,31.955 38.871,31.913 C38.866,31.882 38.861,31.85 38.858,31.818 C38.85,31.738 38.843,31.659 38.843,31.577 C38.843,31.523 38.846,31.469 38.85,31.414 C38.853,31.369 38.858,31.322 38.864,31.276 C38.865,31.269 38.866,31.261 38.867,31.253 C38.882,31.144 38.905,31.031 38.937,30.917 C38.937,30.916 38.937,30.916 38.937,30.916 L38.938,30.915 C38.956,30.846 38.979,30.775 39.004,30.703 C39.006,30.699 39.007,30.696 39.008,30.692 C39.032,30.627 39.06,30.559 39.089,30.491 C39.094,30.481 39.098,30.472 39.102,30.462 C39.13,30.4 39.163,30.335 39.196,30.271 C39.204,30.257 39.21,30.242 39.218,30.228 C39.26,30.15 39.305,30.072 39.355,29.991 C39.666,29.471 40.56,29.076 41.379,29.085 z M44.731,29.74 C44.791,29.788 44.866,29.812 44.942,29.812 C44.95,29.812 44.957,29.812 44.965,29.812 L48.951,29.541 C49.082,29.532 49.196,29.45 49.245,29.328 C49.295,29.207 49.271,29.069 49.184,28.972 L48.466,28.168 C48.883,28.296 49.243,28.407 49.52,28.492 C49.733,28.546 50.125,28.891 50.456,29.337 C50.771,29.747 51.058,30.233 51.247,30.625 C51.106,31.332 50.903,32.029 50.689,32.731 L48.922,34.073 L45.077,31.482 C44.882,31.194 43.987,29.892 43.126,29.027 C42.67,28.576 42.024,28.4 41.379,28.399 C41.26,28.4 41.14,28.407 41.02,28.42 C41.189,28.327 41.358,28.237 41.522,28.15 C41.773,28.018 42.013,27.893 42.227,27.782 L44.731,29.74 z M48.701,24.055 C48.701,24.055 48.706,24.161 48.616,24.212 C48.525,24.263 48.463,24.353 48.446,24.455 C48.429,24.558 48.474,24.655 48.529,24.739 C48.542,24.76 48.545,24.804 48.522,24.845 C48.499,24.886 48.455,24.964 48.455,24.964 C48.406,25.048 48.396,25.147 48.426,25.239 C48.426,25.239 48.426,25.239 48.43,25.253 C48.441,25.293 48.466,25.406 48.466,25.523 C48.466,25.59 48.413,25.781 48.279,25.84 C48.151,25.895 47.935,25.938 47.651,25.947 L46.929,25.933 C46.762,25.929 46.616,26.048 46.586,26.213 C46.583,26.229 46.566,26.321 46.566,26.462 C46.567,26.65 46.594,26.931 46.747,27.217 C46.805,27.327 46.884,27.436 46.985,27.535 C46.986,27.536 46.987,27.538 46.988,27.54 L48.206,28.905 L45.049,29.12 L42.899,27.438 C43.005,27.386 43.066,27.354 43.066,27.354 C43.184,27.297 43.257,27.179 43.257,27.048 L43.257,26.055 L44.637,24.671 C44.722,24.586 44.756,24.46 44.727,24.345 C44.697,24.228 44.607,24.135 44.493,24.101 L44.493,24.1 C44.43,24.057 44.017,23.925 44.003,23.079 C44.008,22.94 44.041,22.922 44.071,22.89 C44.083,22.881 44.095,22.873 44.105,22.868 L45.002,22.86 C45.108,22.859 45.208,22.81 45.272,22.726 C45.272,22.726 46.71,20.826 46.809,20.703 C46.907,20.578 47.058,20.569 47.058,20.569 L49.004,20.356 C49.004,20.356 49.104,20.351 49.119,20.472 C49.135,20.651 49.156,20.869 49.178,21.106 C49.182,21.206 49.116,21.243 49.079,21.244 C48.831,21.252 48.574,21.259 48.299,21.27 C48.011,21.28 47.698,21.412 47.491,21.587 C47.337,21.716 47.332,21.956 47.475,22.094 C47.554,22.17 47.725,22.195 47.912,22.252 C48.148,22.323 48.41,22.413 48.541,22.371 C48.709,22.317 48.773,22.169 48.784,22.007 C48.797,21.826 48.905,21.702 49.088,21.702 C49.165,21.702 49.212,21.766 49.219,21.831 C49.253,22.172 49.316,22.604 49.337,22.849 C49.347,22.969 49.357,23.08 49.364,23.174 C49.367,23.296 49.26,23.306 49.206,23.312 C49.092,23.326 49.002,23.329 49.002,23.33 C48.91,23.334 48.824,23.375 48.763,23.444 C48.701,23.514 48.67,23.603 48.677,23.695 L48.701,24.055 z M43.464,21.438 C43.403,21.263 43.216,21.168 43.041,21.222 C43.19,21.089 43.338,20.96 43.481,20.838 L44.952,20.646 C45.14,20.62 45.271,20.448 45.247,20.261 C45.223,20.073 45.05,19.941 44.863,19.966 L44.639,19.995 C45.098,19.725 45.569,19.506 45.957,19.346 C46.219,19.237 46.444,19.155 46.602,19.101 C46.759,19.047 46.846,19.021 46.846,19.021 C47.027,18.967 47.131,18.776 47.077,18.595 C47.023,18.414 46.832,18.311 46.651,18.364 C46.641,18.368 46.068,18.537 45.329,18.871 C45.436,18.717 45.399,18.504 45.245,18.396 C45.09,18.287 44.876,18.324 44.768,18.479 L43.98,19.598 C43.91,19.644 43.839,19.69 43.77,19.738 C43.669,19.81 43.558,19.894 43.44,19.986 L43.52,19.83 C43.606,19.662 43.54,19.455 43.372,19.369 C43.204,19.282 42.997,19.349 42.911,19.518 L42.048,21.195 C41.835,21.394 41.635,21.581 41.465,21.743 C41.492,20.847 41.733,19.271 42.738,18.52 C43.727,17.763 44.545,17.603 45.227,17.6 C45.629,17.6 45.982,17.66 46.295,17.705 C46.444,17.725 46.971,17.852 47.428,17.968 C47.891,18.086 48.306,18.196 48.306,18.197 L48.395,18.208 C48.901,18.21 49.151,18.34 49.286,18.475 C49.42,18.61 49.474,18.793 49.475,18.994 C49.477,19.167 49.402,19.361 49.318,19.508 C49.288,19.562 49.259,19.604 49.232,19.642 L46.675,19.922 C46.582,19.933 46.497,19.98 46.439,20.055 L44.829,22.177 L44.041,22.183 L43.969,22.191 C43.937,22.199 43.794,22.231 43.633,22.364 C43.472,22.492 43.313,22.749 43.318,23.079 C43.315,23.719 43.535,24.157 43.778,24.412 C43.803,24.439 43.828,24.464 43.853,24.487 L42.804,25.539 C42.641,25.495 42.376,25.403 42.127,25.229 C41.809,25.005 41.519,24.676 41.424,24.1 C41.371,23.767 41.353,23.492 41.353,23.273 C41.353,23.042 41.373,22.875 41.395,22.759 C41.398,22.755 41.403,22.753 41.407,22.749 C41.407,22.748 41.561,22.598 41.802,22.367 L43.251,21.872 C43.429,21.811 43.525,21.616 43.464,21.438 z M25.484,57.318 C25.677,57.355 25.857,57.373 26.025,57.373 C26.629,57.375 27.069,57.145 27.336,56.91 C27.606,56.675 27.718,56.445 27.732,56.418 L27.733,56.415 C27.733,56.414 27.734,56.413 27.734,56.413 C27.736,56.409 27.738,56.403 27.742,56.395 L27.761,56.349 L38.185,31.972 C38.207,32.134 38.255,32.45 38.3,32.602 C38.461,35.34 39.09,37.258 39.751,38.73 C40.132,39.583 40.521,40.234 40.826,40.692 C40.979,40.922 41.11,41.104 41.207,41.237 C41.24,41.282 41.27,41.321 41.294,41.354 L38.863,49.751 C38.824,49.884 38.871,50.028 38.979,50.114 L39.558,50.574 C39.558,50.574 39.631,50.642 39.596,50.768 C39.562,50.894 36.892,60.75 36.892,60.75 L28.414,70.484 C27.787,69.964 25.946,68.261 23.514,64.48 C21.395,61.19 20.762,59.116 20.767,57.933 C20.768,57.344 20.914,56.986 21.088,56.765 C21.09,56.762 21.093,56.76 21.095,56.757 L21.104,56.745 C21.114,56.732 21.125,56.719 21.135,56.707 C21.329,56.491 21.567,56.416 21.747,56.416 C21.769,56.416 21.791,56.417 21.812,56.42 C22.755,56.529 24.087,57.041 25.484,57.318 z M20.917,48.015 L37.869,30.874 L27.706,54.733 C27.555,54.334 27.287,53.898 26.841,53.469 C25.891,52.547 21.974,48.978 20.917,48.015 z M26.364,53.96 C27.062,54.643 27.187,55.236 27.191,55.638 C27.191,55.799 27.168,55.93 27.146,56.016 C27.135,56.059 27.125,56.091 27.118,56.11 C27.116,56.115 27.115,56.119 27.113,56.122 C27.082,56.169 26.809,56.688 26.025,56.688 C25.904,56.688 25.769,56.676 25.616,56.646 C24.29,56.388 22.98,55.874 21.897,55.74 C21.879,55.737 21.858,55.738 21.839,55.736 L24.441,52.167 C25.291,52.949 26.027,53.634 26.364,53.96 z M26.648,74.181 C26.597,74.139 26.509,73.993 26.554,73.884 C26.572,73.838 26.597,73.789 26.625,73.738 C26.773,73.464 27.012,73.145 27.212,72.903 C27.566,73.667 28.421,75.145 30.226,76.738 C28.98,75.966 27.786,75.113 26.648,74.181 z M79.23,35.042 C77.506,30.976 75.05,27.33 71.917,24.197 C68.787,21.07 65.14,18.609 61.079,16.89 C56.874,15.115 52.406,14.216 47.807,14.216 C43.201,14.216 38.735,15.115 34.529,16.89 C30.467,18.609 26.823,21.071 23.688,24.197 C20.559,27.33 18.101,30.976 16.386,35.043 C14.603,39.244 13.701,43.712 13.701,48.31 C13.701,52.917 14.603,57.388 16.386,61.587 C18.101,65.646 20.559,69.294 23.688,72.426 C26.823,75.555 30.467,78.016 34.528,79.734 C35.801,80.272 37.098,80.73 38.415,81.105 C38.427,81.109 38.437,81.113 38.449,81.117 C39.11,81.324 39.781,81.488 40.456,81.62 C42.853,82.147 45.309,82.413 47.807,82.413 C49.329,82.413 50.835,82.312 52.323,82.116 C52.327,82.116 52.331,82.116 52.334,82.116 C53.201,82.067 53.812,81.936 54.214,81.812 C56.562,81.366 58.858,80.674 61.079,79.734 C65.14,78.016 68.787,75.555 71.917,72.426 L71.675,72.184 L71.917,72.426 C75.05,69.294 77.506,65.646 79.229,61.587 C81.003,57.388 81.904,52.917 81.904,48.31 C81.904,43.712 81.003,39.244 79.23,35.042" fill="#FFFFFE"/>
    <path d="M8.744,51.178 C9.137,51.127 9.474,51.131 9.755,51.188 C10.037,51.248 10.274,51.363 10.469,51.534 C10.664,51.706 10.818,51.935 10.932,52.221 C11.046,52.506 11.129,52.85 11.182,53.253 C11.227,53.597 11.231,53.915 11.196,54.206 C11.16,54.498 11.074,54.755 10.935,54.979 C10.798,55.201 10.606,55.385 10.359,55.529 C10.113,55.674 9.526,55.798 9.526,55.798 C9.47,55.81 9.378,55.825 9.322,55.832 L6.3,56.228 C6.244,56.235 6.195,56.287 6.192,56.345 L6.167,56.79 C6.163,56.847 6.114,56.899 6.058,56.907 L5.924,56.925 C5.868,56.932 5.815,56.892 5.808,56.835 L5.542,54.8 C5.535,54.743 5.575,54.692 5.631,54.684 L5.765,54.666 C5.821,54.659 5.882,54.697 5.9,54.751 L6.038,55.167 C6.056,55.222 6.117,55.26 6.173,55.252 L9.556,54.811 C9.97,54.756 10.28,54.59 10.487,54.312 C10.694,54.032 10.766,53.65 10.702,53.16 C10.636,52.655 10.464,52.305 10.187,52.108 C9.91,51.912 9.068,51.919 9.068,51.919 C9.011,51.919 8.918,51.926 8.862,51.934 L5.792,52.335 C5.735,52.342 5.686,52.395 5.683,52.452 L5.657,52.896 C5.654,52.954 5.605,53.006 5.548,53.014 L5.415,53.031 C5.358,53.039 5.306,52.998 5.299,52.941 L5.061,51.116 C5.053,51.06 5.093,51.008 5.149,51 L5.283,50.983 C5.339,50.976 5.4,51.014 5.418,51.067 L5.558,51.492 C5.575,51.546 5.636,51.584 5.692,51.577 L8.744,51.178" fill="#FFFFFE"/>
    <path d="M5.095,46.445 C5.1,46.388 5.144,46.317 5.192,46.289 L9.461,43.746 L5.889,43.483 C5.832,43.479 5.773,43.52 5.758,43.575 L5.643,43.998 C5.628,44.053 5.569,44.094 5.513,44.09 L5.378,44.08 C5.322,44.075 5.279,44.025 5.283,43.969 L5.416,42.214 C5.42,42.157 5.47,42.114 5.527,42.118 L5.662,42.129 C5.718,42.133 5.77,42.183 5.776,42.239 L5.826,42.683 C5.833,42.739 5.884,42.789 5.941,42.794 L11,43.178 C11.057,43.182 11.1,43.232 11.096,43.289 L11.058,43.787 C11.053,43.844 11.01,43.914 10.96,43.943 L6.029,46.836 L10.185,47.15 C10.241,47.155 10.3,47.114 10.315,47.059 L10.43,46.636 C10.445,46.581 10.504,46.539 10.56,46.544 L10.695,46.554 C10.752,46.558 10.794,46.607 10.79,46.664 L10.657,48.42 C10.653,48.477 10.603,48.52 10.546,48.516 L10.412,48.505 C10.355,48.501 10.303,48.451 10.297,48.395 L10.247,47.95 C10.241,47.895 10.189,47.844 10.132,47.84 L5.585,47.495 C5.528,47.491 5.469,47.532 5.455,47.588 L5.338,48.019 C5.323,48.073 5.265,48.115 5.208,48.11 L5.074,48.101 C5.017,48.097 4.974,48.046 4.978,47.989 L5.095,46.445" fill="#FFFFFE"/>
    <path d="M6.848,36.972 C6.904,36.985 6.946,37.043 6.943,37.1 L6.919,37.538 C6.916,37.595 6.958,37.653 7.014,37.667 L11.439,38.771 C11.494,38.786 11.559,38.755 11.583,38.703 L11.768,38.306 C11.792,38.254 11.856,38.223 11.912,38.236 L12.043,38.269 C12.098,38.283 12.132,38.34 12.118,38.395 L11.62,40.387 C11.606,40.441 11.55,40.476 11.495,40.461 L11.364,40.429 C11.309,40.415 11.266,40.357 11.27,40.3 L11.294,39.862 C11.296,39.806 11.254,39.748 11.198,39.733 L6.774,38.629 C6.719,38.615 6.654,38.646 6.63,38.697 L6.445,39.095 C6.421,39.146 6.356,39.178 6.301,39.164 L6.17,39.131 C6.115,39.118 6.081,39.062 6.095,39.006 L6.592,37.015 C6.606,36.959 6.663,36.926 6.718,36.94 L6.848,36.972" fill="#FFFFFE"/>
    <path d="M13.782,33.613 C13.822,33.653 13.838,33.729 13.815,33.781 L13.575,34.346 C13.553,34.398 13.488,34.437 13.431,34.435 L8.06,34.071 C8.003,34.067 7.929,34.103 7.896,34.148 L7.698,34.419 C7.665,34.465 7.595,34.484 7.542,34.462 L7.418,34.409 C7.366,34.388 7.341,34.326 7.363,34.273 L8.1,32.542 C8.123,32.489 8.184,32.465 8.236,32.487 L8.36,32.54 C8.413,32.562 8.447,32.626 8.437,32.682 L8.373,33.027 C8.363,33.084 8.4,33.133 8.458,33.138 L12.772,33.472 L9.604,30.44 C9.563,30.401 9.502,30.408 9.47,30.455 L9.232,30.804 C9.201,30.852 9.132,30.872 9.079,30.85 L8.955,30.797 C8.903,30.775 8.878,30.713 8.9,30.661 L9.564,29.102 C9.586,29.049 9.648,29.024 9.7,29.047 L9.824,29.1 C9.876,29.122 9.91,29.186 9.898,29.241 L9.814,29.647 C9.802,29.702 9.826,29.781 9.867,29.82 L13.782,33.613" fill="#FFFFFE"/>
    <path d="M24.573,18.873 C24.703,18.839 24.837,18.788 24.977,18.722 C25.116,18.656 25.229,18.59 25.317,18.526 C25.626,18.297 25.819,18.052 25.895,17.79 C25.971,17.528 25.917,17.272 25.733,17.024 C25.623,16.876 25.497,16.773 25.354,16.717 C25.211,16.661 25.06,16.632 24.899,16.629 C24.739,16.626 24.573,16.641 24.402,16.673 C24.23,16.705 24.059,16.733 23.889,16.759 C23.631,16.793 23.398,16.824 23.189,16.852 C22.979,16.878 22.788,16.881 22.615,16.86 C22.441,16.841 22.282,16.788 22.135,16.704 C21.989,16.621 21.85,16.489 21.717,16.31 C21.572,16.114 21.485,15.91 21.457,15.698 C21.428,15.487 21.452,15.273 21.526,15.061 C21.601,14.847 21.724,14.636 21.896,14.427 C22.069,14.219 22.284,14.02 22.541,13.829 C22.637,13.758 22.746,13.688 22.866,13.619 C22.987,13.55 23.11,13.484 23.236,13.421 C23.362,13.359 23.486,13.302 23.61,13.251 C23.734,13.2 23.849,13.164 23.849,13.164 C23.903,13.147 23.959,13.143 23.973,13.154 C23.988,13.166 24.022,13.217 24.05,13.266 L24.482,14.026 C24.51,14.076 24.496,14.145 24.45,14.179 L24.165,14.389 C24.12,14.422 24.046,14.42 24.003,14.384 L23.473,13.939 C23.379,13.941 23.27,13.967 23.145,14.016 C23.019,14.064 22.882,14.144 22.734,14.253 C22.468,14.45 22.302,14.668 22.238,14.908 C22.173,15.148 22.221,15.378 22.382,15.596 C22.485,15.736 22.597,15.832 22.717,15.885 C22.837,15.938 22.964,15.965 23.1,15.966 C23.236,15.967 23.377,15.952 23.522,15.922 C23.669,15.892 23.819,15.862 23.974,15.835 C24.188,15.806 24.412,15.771 24.645,15.729 C24.877,15.689 25.103,15.674 25.323,15.684 C25.542,15.692 25.749,15.737 25.942,15.817 C26.136,15.896 26.302,16.04 26.442,16.247 C26.62,16.514 26.72,16.769 26.744,17.011 C26.768,17.253 26.735,17.484 26.646,17.705 C26.557,17.926 26.414,18.14 26.219,18.345 C26.024,18.55 25.795,18.749 25.534,18.942 C25.298,19.116 25.052,19.267 24.795,19.393 C24.538,19.519 24.204,19.654 24.204,19.654 C24.151,19.676 24.097,19.683 24.085,19.669 C24.073,19.657 24.039,19.605 24.011,19.557 L23.574,18.8 C23.545,18.75 23.559,18.682 23.605,18.648 L23.89,18.438 C23.935,18.403 24.009,18.406 24.052,18.442 L24.573,18.873" fill="#FFFFFE"/>
    <path d="M28.661,10.464 C28.688,10.515 28.674,10.585 28.63,10.621 L28.29,10.897 C28.246,10.934 28.231,11.004 28.259,11.054 L30.418,15.072 C30.445,15.122 30.511,15.148 30.565,15.132 L30.984,15.001 C31.039,14.984 31.105,15.011 31.132,15.062 L31.196,15.18 C31.223,15.229 31.204,15.293 31.154,15.32 L29.346,16.292 C29.295,16.319 29.232,16.3 29.205,16.25 L29.142,16.131 C29.114,16.081 29.129,16.011 29.173,15.975 L29.513,15.697 C29.558,15.661 29.571,15.592 29.544,15.541 L27.385,11.525 C27.358,11.474 27.292,11.446 27.237,11.464 L26.819,11.594 C26.765,11.611 26.698,11.584 26.671,11.534 L26.607,11.416 C26.58,11.365 26.599,11.302 26.649,11.275 L28.457,10.303 C28.507,10.276 28.57,10.296 28.598,10.346 L28.661,10.464" fill="#FFFFFE"/>
    <path d="M30.907,9.151 C30.919,9.118 30.973,9.076 31.026,9.057 L35.247,7.522 C35.301,7.502 35.367,7.493 35.394,7.503 C35.421,7.512 35.46,7.563 35.482,7.615 L35.846,8.519 C35.867,8.571 35.841,8.63 35.787,8.649 L35.447,8.773 C35.394,8.793 35.324,8.771 35.291,8.723 L34.995,8.283 C34.963,8.235 34.892,8.21 34.837,8.227 L34.396,8.357 C34.341,8.373 34.253,8.402 34.199,8.422 L33.771,8.577 L35.355,12.939 C35.375,12.992 35.436,13.029 35.493,13.02 L35.926,12.95 C35.982,12.941 36.044,12.978 36.063,13.031 L36.11,13.158 C36.129,13.212 36.101,13.271 36.048,13.29 L34.119,13.992 C34.065,14.012 34.005,13.983 33.986,13.93 L33.94,13.803 C33.92,13.75 33.944,13.682 33.993,13.653 L34.37,13.428 C34.419,13.398 34.443,13.331 34.423,13.277 L32.836,8.916 L32.408,9.073 C32.354,9.093 32.268,9.127 32.215,9.15 L31.793,9.334 C31.741,9.356 31.703,9.422 31.708,9.479 L31.764,10.006 C31.77,10.063 31.731,10.125 31.677,10.145 L31.337,10.268 C31.284,10.287 31.226,10.259 31.208,10.204 L30.918,9.31 C30.9,9.256 30.896,9.185 30.907,9.151" fill="#FFFFFE"/>
    <path d="M39.871,7.265 L39.439,9.664 L41.029,9.364 L39.871,7.265 z M41.242,9.746 L39.356,10.103 L39.065,11.83 C39.056,11.886 39.095,11.933 39.152,11.935 L39.542,11.941 C39.6,11.942 39.655,11.989 39.665,12.046 L39.69,12.178 C39.701,12.233 39.664,12.288 39.608,12.299 L37.958,12.61 C37.902,12.62 37.848,12.583 37.837,12.527 L37.813,12.395 C37.802,12.339 37.836,12.275 37.888,12.253 L38.226,12.109 C38.279,12.088 38.33,12.023 38.341,11.968 L39.382,6.544 C39.393,6.488 39.447,6.434 39.503,6.423 L40.226,6.286 C40.282,6.276 40.351,6.308 40.379,6.357 L43.063,11.074 C43.091,11.124 43.161,11.166 43.218,11.167 L43.576,11.179 C43.633,11.181 43.688,11.228 43.699,11.283 L43.724,11.416 C43.734,11.472 43.697,11.526 43.641,11.536 L41.752,11.894 C41.696,11.903 41.642,11.867 41.631,11.812 L41.606,11.679 C41.596,11.622 41.63,11.559 41.682,11.536 L42.02,11.393 C42.073,11.371 42.093,11.312 42.066,11.262 L41.242,9.746" fill="#FFFFFE"/>
    <path d="M46.464,10.909 C46.588,10.957 46.727,10.996 46.879,11.024 C47.03,11.054 47.161,11.068 47.269,11.067 C47.654,11.066 47.954,10.982 48.17,10.815 C48.386,10.649 48.494,10.412 48.493,10.103 C48.492,9.918 48.45,9.761 48.369,9.632 C48.287,9.501 48.182,9.388 48.054,9.291 C47.926,9.193 47.784,9.108 47.626,9.032 C47.469,8.957 47.314,8.879 47.162,8.798 C46.934,8.675 46.727,8.562 46.543,8.459 C46.358,8.357 46.201,8.247 46.074,8.128 C45.946,8.009 45.848,7.873 45.779,7.718 C45.711,7.564 45.676,7.376 45.675,7.153 C45.674,6.909 45.725,6.693 45.827,6.506 C45.929,6.318 46.073,6.16 46.26,6.032 C46.446,5.903 46.67,5.806 46.933,5.74 C47.195,5.674 47.486,5.641 47.806,5.639 C47.925,5.639 48.054,5.646 48.192,5.661 C48.331,5.677 48.469,5.697 48.607,5.721 C48.746,5.745 48.88,5.773 49.01,5.804 C49.14,5.836 49.254,5.875 49.254,5.875 C49.308,5.894 49.355,5.924 49.36,5.94 C49.364,5.959 49.363,6.02 49.356,6.077 L49.255,6.945 C49.249,7.002 49.197,7.049 49.14,7.049 L48.786,7.05 C48.729,7.051 48.671,7.005 48.658,6.95 L48.492,6.278 C48.416,6.225 48.312,6.181 48.182,6.146 C48.052,6.111 47.895,6.094 47.711,6.095 C47.38,6.096 47.118,6.175 46.923,6.33 C46.729,6.485 46.632,6.698 46.633,6.97 C46.634,7.144 46.667,7.287 46.733,7.401 C46.798,7.514 46.885,7.611 46.994,7.692 C47.103,7.773 47.225,7.845 47.361,7.906 C47.497,7.969 47.635,8.034 47.777,8.105 C47.967,8.206 48.167,8.31 48.38,8.415 C48.591,8.52 48.783,8.641 48.954,8.778 C49.125,8.916 49.266,9.074 49.374,9.253 C49.483,9.431 49.533,9.646 49.523,9.895 C49.509,10.215 49.439,10.48 49.316,10.688 C49.192,10.898 49.029,11.065 48.827,11.191 C48.624,11.317 48.383,11.404 48.104,11.455 C47.825,11.505 47.523,11.53 47.198,11.531 C46.905,11.533 46.618,11.509 46.336,11.458 C46.054,11.408 45.704,11.32 45.704,11.32 C45.649,11.306 45.602,11.28 45.6,11.263 C45.597,11.245 45.601,11.184 45.606,11.127 L45.701,10.258 C45.707,10.202 45.759,10.155 45.816,10.155 L46.17,10.153 C46.227,10.153 46.285,10.198 46.299,10.253 L46.464,10.909" fill="#FFFFFE"/>
    <path d="M61.713,9.118 C61.562,8.642 61.232,8.321 60.722,8.155 C60.206,7.988 59.749,8.049 59.348,8.335 C58.948,8.621 58.617,9.167 58.356,9.972 C58.092,10.787 58.034,11.433 58.182,11.908 C58.33,12.384 58.661,12.705 59.176,12.872 C59.692,13.039 60.15,12.979 60.551,12.693 C60.951,12.406 61.282,11.86 61.542,11.056 C61.807,10.241 61.864,9.595 61.713,9.118 z M61.201,13.216 C60.581,13.549 59.848,13.577 59.003,13.304 C58.595,13.171 58.251,12.994 57.97,12.771 C57.689,12.55 57.475,12.286 57.329,11.982 C57.182,11.678 57.106,11.336 57.102,10.955 C57.097,10.574 57.167,10.159 57.313,9.711 C57.465,9.241 57.661,8.849 57.9,8.532 C58.139,8.217 58.412,7.978 58.718,7.814 C59.024,7.65 59.361,7.562 59.727,7.547 C60.094,7.532 60.478,7.589 60.88,7.72 C61.283,7.85 61.626,8.026 61.909,8.25 C62.193,8.473 62.409,8.737 62.557,9.046 C62.705,9.353 62.782,9.699 62.789,10.083 C62.795,10.467 62.725,10.886 62.578,11.34 C62.281,12.259 61.822,12.884 61.201,13.216" fill="#FFFFFE"/>
    <path d="M64.545,14.89 C64.631,14.992 64.733,15.093 64.853,15.191 C64.972,15.29 65.079,15.364 65.174,15.416 C65.512,15.6 65.816,15.671 66.085,15.629 C66.354,15.587 66.563,15.43 66.711,15.158 C66.799,14.996 66.838,14.839 66.829,14.686 C66.82,14.532 66.782,14.383 66.717,14.235 C66.652,14.089 66.568,13.945 66.466,13.804 C66.364,13.662 66.266,13.52 66.171,13.375 C66.031,13.157 65.904,12.958 65.791,12.78 C65.679,12.602 65.595,12.43 65.54,12.264 C65.485,12.098 65.465,11.932 65.479,11.763 C65.493,11.595 65.554,11.413 65.659,11.218 C65.776,11.004 65.924,10.838 66.104,10.724 C66.283,10.607 66.486,10.538 66.711,10.516 C66.937,10.493 67.18,10.516 67.442,10.584 C67.704,10.652 67.975,10.763 68.256,10.915 C68.361,10.972 68.471,11.04 68.584,11.12 C68.698,11.2 68.81,11.285 68.919,11.372 C69.029,11.46 69.133,11.549 69.232,11.639 C69.331,11.729 69.412,11.818 69.412,11.818 C69.45,11.86 69.478,11.909 69.473,11.928 C69.469,11.945 69.438,11.998 69.405,12.045 L68.898,12.757 C68.865,12.804 68.797,12.819 68.747,12.793 L68.437,12.623 C68.386,12.597 68.357,12.529 68.372,12.474 L68.55,11.806 C68.509,11.722 68.44,11.633 68.343,11.54 C68.245,11.447 68.115,11.356 67.954,11.269 C67.663,11.111 67.395,11.054 67.149,11.097 C66.904,11.14 66.717,11.28 66.588,11.519 C66.505,11.671 66.465,11.813 66.468,11.943 C66.471,12.075 66.5,12.202 66.557,12.325 C66.613,12.448 66.686,12.569 66.775,12.689 C66.865,12.809 66.955,12.933 67.044,13.063 C67.162,13.243 67.288,13.431 67.423,13.624 C67.559,13.818 67.669,14.017 67.752,14.22 C67.836,14.423 67.883,14.629 67.894,14.838 C67.903,15.047 67.844,15.259 67.715,15.473 C67.548,15.746 67.36,15.944 67.151,16.069 C66.942,16.192 66.718,16.261 66.48,16.273 C66.242,16.287 65.989,16.248 65.72,16.157 C65.452,16.067 65.174,15.944 64.889,15.789 C64.631,15.649 64.392,15.49 64.169,15.311 C63.945,15.13 63.681,14.886 63.681,14.886 C63.639,14.846 63.61,14.801 63.617,14.784 C63.624,14.768 63.655,14.715 63.688,14.669 L64.189,13.952 C64.222,13.906 64.29,13.891 64.34,13.917 L64.65,14.086 C64.701,14.113 64.73,14.181 64.715,14.235 L64.545,14.89" fill="#FFFFFE"/>
    <path d="M70.47,18.628 C70.435,18.673 70.443,18.738 70.488,18.773 L71.189,19.323 C71.233,19.358 71.309,19.414 71.355,19.445 L71.728,19.702 C71.775,19.734 71.85,19.731 71.894,19.696 L72.35,19.328 C72.395,19.292 72.468,19.292 72.512,19.327 L72.797,19.551 C72.842,19.585 72.849,19.649 72.812,19.693 L72.206,20.413 C72.169,20.456 72.123,20.507 72.103,20.525 C72.083,20.544 72.029,20.53 71.985,20.495 L68.949,18.115 C68.904,18.08 68.896,18.015 68.932,17.97 L69.014,17.864 C69.049,17.819 69.12,17.804 69.17,17.83 L69.56,18.03 C69.611,18.056 69.681,18.041 69.716,17.996 L72.53,14.407 C72.565,14.362 72.563,14.29 72.526,14.247 L72.238,13.916 C72.201,13.873 72.199,13.801 72.234,13.756 L72.317,13.651 C72.352,13.606 72.418,13.598 72.462,13.633 L74.071,14.895 C74.116,14.93 74.124,14.995 74.089,15.04 L74.006,15.146 C73.971,15.19 73.901,15.206 73.85,15.18 L73.46,14.979 C73.409,14.953 73.338,14.969 73.304,15.014 L70.47,18.628" fill="#FFFFFE"/>
    <path d="M79.733,21.752 C79.847,21.266 79.726,20.821 79.371,20.419 C79.013,20.013 78.588,19.831 78.098,19.873 C77.607,19.916 77.044,20.217 76.41,20.776 C75.767,21.344 75.389,21.869 75.274,22.354 C75.158,22.838 75.279,23.283 75.638,23.69 C75.997,24.097 76.421,24.278 76.912,24.236 C77.402,24.193 77.965,23.893 78.599,23.333 C79.242,22.766 79.62,22.239 79.733,21.752 z M77.205,25.018 C76.502,24.987 75.857,24.639 75.269,23.972 C74.986,23.65 74.78,23.323 74.651,22.988 C74.522,22.654 74.473,22.319 74.501,21.983 C74.531,21.646 74.64,21.313 74.83,20.983 C75.02,20.653 75.292,20.332 75.645,20.021 C76.016,19.693 76.384,19.455 76.751,19.306 C77.117,19.155 77.474,19.089 77.821,19.104 C78.167,19.12 78.502,19.215 78.826,19.389 C79.149,19.563 79.45,19.808 79.729,20.125 C80.01,20.441 80.214,20.769 80.345,21.104 C80.476,21.441 80.526,21.78 80.497,22.12 C80.468,22.46 80.358,22.797 80.168,23.131 C79.978,23.465 79.704,23.789 79.346,24.105 C78.622,24.743 77.908,25.048 77.205,25.018" fill="#FFFFFE"/>
    <path d="M82.064,28.596 C82.107,28.56 82.119,28.489 82.09,28.439 L81.472,27.39 L79.44,28.614 L80.104,29.733 C80.133,29.782 80.184,29.86 80.215,29.907 L80.47,30.281 C80.502,30.329 80.573,30.353 80.627,30.335 L81.182,30.151 C81.236,30.134 81.304,30.159 81.333,30.208 L81.522,30.526 C81.551,30.575 81.534,30.638 81.484,30.665 L80.659,31.117 C80.609,31.145 80.547,31.175 80.522,31.185 C80.496,31.194 80.452,31.162 80.423,31.113 L78.287,27.518 C78.258,27.469 78.274,27.404 78.323,27.376 L78.438,27.307 C78.488,27.277 78.559,27.288 78.597,27.331 L78.888,27.659 C78.925,27.702 78.997,27.713 79.045,27.684 L82.967,25.354 C83.016,25.325 83.04,25.258 83.02,25.204 L82.872,24.792 C82.853,24.738 82.877,24.671 82.926,24.642 L83.042,24.573 C83.091,24.544 83.154,24.56 83.183,24.608 L85.22,28.037 C85.249,28.086 85.27,28.15 85.268,28.182 C85.265,28.212 85.223,28.262 85.175,28.292 L84.356,28.817 C84.308,28.849 84.245,28.834 84.216,28.784 L84.031,28.473 C84.002,28.425 84.012,28.353 84.053,28.313 L84.497,27.895 C84.539,27.855 84.551,27.782 84.525,27.731 L84.314,27.321 C84.289,27.271 84.243,27.189 84.214,27.141 L83.615,26.126 L81.818,27.198 L82.438,28.243 C82.466,28.292 82.534,28.316 82.587,28.296 L82.997,28.142 C83.05,28.122 83.118,28.146 83.146,28.195 L83.302,28.457 C83.331,28.507 83.315,28.57 83.266,28.6 L81.94,29.387 C81.891,29.416 81.828,29.399 81.798,29.351 L81.643,29.089 C81.614,29.04 81.626,28.969 81.669,28.933 L82.064,28.596" fill="#FFFFFE"/>
    <path d="M14.864,26.166 C14.811,26.144 14.743,26.164 14.712,26.212 L14.042,27.229 L16.039,28.513 L16.749,27.423 C16.78,27.375 16.828,27.295 16.856,27.245 L17.08,26.853 C17.108,26.803 17.098,26.729 17.058,26.688 L16.649,26.271 C16.609,26.23 16.602,26.158 16.633,26.11 L16.835,25.8 C16.866,25.753 16.929,25.74 16.976,25.772 L17.746,26.314 C17.792,26.347 17.847,26.389 17.867,26.407 C17.887,26.426 17.878,26.48 17.847,26.528 L15.563,30.032 C15.532,30.079 15.467,30.093 15.42,30.062 L15.307,29.988 C15.259,29.957 15.238,29.889 15.259,29.836 L15.425,29.43 C15.447,29.377 15.425,29.309 15.377,29.277 L11.557,26.787 C11.509,26.756 11.438,26.765 11.398,26.805 L11.094,27.12 C11.054,27.161 10.982,27.169 10.935,27.138 L10.822,27.064 C10.774,27.033 10.761,26.969 10.792,26.921 L12.969,23.581 C13,23.533 13.049,23.485 13.078,23.475 C13.106,23.464 13.169,23.479 13.218,23.509 L14.051,24.012 C14.1,24.041 14.114,24.104 14.083,24.152 L13.886,24.455 C13.854,24.503 13.785,24.525 13.732,24.506 L13.16,24.293 C13.107,24.272 13.036,24.294 13.002,24.34 L12.727,24.709 C12.693,24.755 12.64,24.831 12.608,24.879 L11.962,25.864 L13.719,27.004 L14.383,25.986 C14.414,25.939 14.405,25.868 14.364,25.829 L14.045,25.529 C14.003,25.49 13.995,25.419 14.026,25.372 L14.192,25.116 C14.224,25.068 14.288,25.055 14.336,25.086 L15.628,25.928 C15.676,25.959 15.69,26.023 15.658,26.071 L15.492,26.327 C15.46,26.375 15.392,26.395 15.34,26.372 L14.864,26.166" fill="#FFFFFE"/>
    <path d="M87.532,33.077 C87.55,33.131 87.538,33.213 87.504,33.259 L84.593,37.291 L87.98,36.111 C88.034,36.092 88.072,36.031 88.064,35.975 L88.001,35.54 C87.993,35.483 88.03,35.423 88.084,35.404 L88.211,35.36 C88.265,35.341 88.325,35.37 88.343,35.425 L88.918,37.087 C88.937,37.141 88.908,37.2 88.854,37.22 L88.727,37.263 C88.673,37.281 88.606,37.257 88.577,37.207 L88.355,36.819 C88.327,36.771 88.26,36.745 88.206,36.764 L83.411,38.422 C83.357,38.441 83.298,38.411 83.279,38.358 L83.116,37.886 C83.098,37.831 83.11,37.75 83.144,37.703 L86.522,33.087 L82.581,34.451 C82.527,34.471 82.49,34.531 82.498,34.588 L82.56,35.022 C82.568,35.079 82.531,35.14 82.477,35.158 L82.35,35.202 C82.296,35.222 82.236,35.192 82.218,35.139 L81.643,33.475 C81.624,33.422 81.653,33.361 81.706,33.343 L81.834,33.3 C81.888,33.28 81.955,33.306 81.983,33.355 L82.206,33.742 C82.234,33.792 82.301,33.817 82.355,33.799 L86.665,32.308 C86.719,32.289 86.756,32.229 86.748,32.172 L86.684,31.73 C86.675,31.674 86.712,31.612 86.766,31.594 L86.894,31.549 C86.947,31.531 87.007,31.56 87.025,31.613 L87.532,33.077" fill="#FFFFFE"/>
    <path d="M84.539,41.799 C84.509,41.929 84.489,42.071 84.481,42.226 C84.474,42.38 84.477,42.511 84.493,42.618 C84.548,42.999 84.672,43.284 84.867,43.476 C85.062,43.667 85.312,43.74 85.618,43.696 C85.801,43.67 85.95,43.607 86.068,43.508 C86.185,43.409 86.283,43.289 86.361,43.15 C86.439,43.01 86.505,42.856 86.558,42.69 C86.611,42.525 86.666,42.359 86.726,42.198 C86.816,41.955 86.9,41.734 86.976,41.538 C87.052,41.341 87.14,41.171 87.239,41.027 C87.34,40.885 87.461,40.769 87.605,40.679 C87.748,40.591 87.93,40.53 88.15,40.498 C88.391,40.464 88.612,40.484 88.812,40.56 C89.012,40.634 89.189,40.756 89.341,40.922 C89.494,41.089 89.621,41.298 89.723,41.549 C89.825,41.8 89.899,42.084 89.944,42.4 C89.961,42.519 89.972,42.646 89.975,42.785 C89.979,42.925 89.979,43.064 89.974,43.204 C89.969,43.345 89.96,43.482 89.947,43.614 C89.933,43.749 89.91,43.866 89.91,43.866 C89.899,43.923 89.876,43.974 89.859,43.98 C89.842,43.988 89.782,43.995 89.725,43.995 L88.85,44.016 C88.793,44.017 88.74,43.972 88.732,43.915 L88.682,43.565 C88.674,43.509 88.71,43.445 88.763,43.424 L89.405,43.167 C89.448,43.085 89.477,42.977 89.494,42.843 C89.511,42.709 89.505,42.551 89.479,42.368 C89.432,42.041 89.318,41.792 89.138,41.621 C88.957,41.449 88.732,41.384 88.463,41.423 C88.292,41.447 88.154,41.5 88.051,41.58 C87.947,41.661 87.863,41.761 87.798,41.88 C87.733,41.998 87.679,42.13 87.636,42.272 C87.594,42.415 87.548,42.562 87.498,42.711 C87.423,42.913 87.349,43.127 87.274,43.351 C87.199,43.575 87.106,43.781 86.993,43.971 C86.881,44.159 86.743,44.319 86.581,44.452 C86.42,44.585 86.215,44.664 85.966,44.688 C85.647,44.719 85.376,44.687 85.151,44.593 C84.927,44.499 84.739,44.36 84.586,44.178 C84.433,43.994 84.313,43.768 84.225,43.498 C84.137,43.229 84.07,42.934 84.023,42.612 C83.982,42.322 83.966,42.034 83.977,41.748 C83.988,41.461 84.027,41.104 84.027,41.104 C84.033,41.047 84.052,40.996 84.07,40.991 C84.087,40.986 84.147,40.981 84.205,40.979 L85.078,40.953 C85.135,40.951 85.188,40.997 85.196,41.053 L85.247,41.402 C85.255,41.459 85.218,41.523 85.166,41.544 L84.539,41.799" fill="#FFFFFE"/>
    <path d="M90.014,49.483 C89.956,49.483 89.901,49.437 89.89,49.382 L89.805,48.951 C89.794,48.896 89.738,48.85 89.682,48.85 L85.121,48.87 C85.064,48.87 85.008,48.916 84.998,48.972 L84.917,49.403 C84.907,49.459 84.852,49.505 84.794,49.505 L84.66,49.506 C84.603,49.506 84.556,49.46 84.556,49.402 L84.547,47.351 C84.546,47.294 84.593,47.246 84.65,47.246 L84.785,47.246 C84.842,47.245 84.897,47.291 84.908,47.347 L84.993,47.777 C85.004,47.833 85.06,47.879 85.117,47.878 L89.677,47.859 C89.734,47.858 89.79,47.813 89.8,47.757 L89.88,47.325 C89.891,47.269 89.947,47.223 90.003,47.223 L90.138,47.222 C90.195,47.222 90.242,47.269 90.242,47.325 L90.251,49.378 C90.251,49.435 90.205,49.482 90.148,49.482 L90.014,49.483" fill="#FFFFFE"/>
    <path d="M84.795,52.956 C84.728,53.071 84.667,53.201 84.614,53.347 C84.562,53.492 84.527,53.618 84.51,53.726 C84.45,54.105 84.485,54.415 84.615,54.655 C84.745,54.895 84.962,55.039 85.268,55.087 C85.451,55.115 85.612,55.1 85.753,55.039 C85.895,54.979 86.023,54.894 86.139,54.783 C86.255,54.673 86.363,54.546 86.462,54.402 C86.562,54.259 86.663,54.118 86.767,53.98 C86.926,53.775 87.07,53.59 87.201,53.423 C87.331,53.257 87.465,53.121 87.603,53.014 C87.741,52.905 87.891,52.831 88.054,52.788 C88.217,52.745 88.409,52.741 88.628,52.775 C88.87,52.812 89.075,52.898 89.243,53.028 C89.413,53.159 89.545,53.326 89.643,53.53 C89.739,53.735 89.8,53.973 89.823,54.242 C89.847,54.512 89.834,54.805 89.784,55.12 C89.766,55.238 89.737,55.364 89.7,55.498 C89.663,55.633 89.621,55.766 89.576,55.899 C89.53,56.031 89.481,56.158 89.429,56.282 C89.377,56.406 89.32,56.512 89.32,56.512 C89.294,56.562 89.256,56.604 89.238,56.607 C89.22,56.608 89.16,56.596 89.105,56.581 L88.264,56.343 C88.208,56.327 88.171,56.269 88.18,56.212 L88.235,55.862 C88.244,55.807 88.297,55.757 88.355,55.752 L89.044,55.695 C89.108,55.629 89.169,55.534 89.224,55.411 C89.279,55.288 89.32,55.136 89.349,54.953 C89.4,54.627 89.365,54.355 89.242,54.139 C89.12,53.922 88.925,53.792 88.656,53.751 C88.485,53.724 88.338,53.733 88.215,53.78 C88.093,53.827 87.983,53.897 87.886,53.991 C87.789,54.086 87.699,54.195 87.616,54.319 C87.534,54.443 87.446,54.57 87.354,54.698 C87.224,54.87 87.089,55.052 86.952,55.244 C86.815,55.437 86.665,55.606 86.501,55.754 C86.339,55.9 86.161,56.014 85.966,56.093 C85.773,56.173 85.554,56.187 85.309,56.138 C84.995,56.072 84.745,55.962 84.558,55.807 C84.371,55.65 84.232,55.463 84.14,55.243 C84.048,55.022 84,54.771 83.995,54.488 C83.99,54.205 84.012,53.902 84.063,53.581 C84.108,53.292 84.179,53.012 84.273,52.742 C84.367,52.472 84.51,52.141 84.51,52.141 C84.532,52.088 84.565,52.046 84.584,52.046 C84.602,52.047 84.662,52.06 84.717,52.074 L85.559,52.307 C85.614,52.321 85.651,52.38 85.643,52.437 L85.588,52.786 C85.579,52.843 85.525,52.892 85.469,52.898 L84.795,52.956" fill="#FFFFFE"/>
    <path d="M23.249,82.325 C23.3,82.349 23.368,82.33 23.4,82.282 L25.748,78.909 L21.376,81.386 C21.327,81.413 21.25,81.407 21.206,81.371 L21.031,81.23 C20.987,81.193 20.962,81.118 20.977,81.063 L22.242,76.342 L19.587,79.233 C19.547,79.273 19.541,79.344 19.575,79.39 L19.841,79.751 C19.875,79.798 19.871,79.869 19.831,79.911 L19.741,80.009 C19.702,80.05 19.636,80.053 19.594,80.013 L18.3,78.808 C18.259,78.769 18.256,78.703 18.295,78.661 L18.387,78.564 C18.425,78.521 18.497,78.513 18.545,78.542 L18.918,78.778 C18.966,78.808 19.039,78.8 19.079,78.76 L22.081,75.429 C22.119,75.386 22.119,75.315 22.082,75.272 L21.798,74.935 C21.762,74.891 21.761,74.818 21.797,74.775 L21.881,74.671 C21.917,74.626 21.983,74.619 22.027,74.656 L23.381,75.756 C23.425,75.792 23.45,75.866 23.435,75.921 L22.359,80.077 L26.064,78.059 C26.113,78.031 26.19,78.038 26.234,78.074 L27.531,79.128 C27.576,79.164 27.583,79.23 27.546,79.273 L27.462,79.378 C27.426,79.422 27.355,79.437 27.306,79.409 L26.917,79.2 C26.867,79.173 26.798,79.189 26.764,79.233 L24.204,82.872 C24.172,82.919 24.178,82.991 24.216,83.034 L24.517,83.357 C24.556,83.398 24.56,83.47 24.526,83.516 L24.447,83.624 C24.414,83.67 24.349,83.68 24.303,83.647 L22.639,82.427 C22.593,82.394 22.582,82.328 22.617,82.282 L22.695,82.175 C22.729,82.128 22.799,82.11 22.85,82.135 L23.249,82.325" fill="#FFFFFE"/>
    <path d="M33.968,84.436 C34.024,84.121 34.017,83.837 33.946,83.581 C33.875,83.326 33.741,83.098 33.544,82.897 C33.347,82.696 32.858,82.403 32.858,82.403 C32.809,82.374 32.728,82.329 32.677,82.304 L32.159,82.036 L29.961,86.337 L30.454,86.591 C30.692,86.712 30.921,86.81 31.143,86.884 C31.365,86.958 31.579,86.992 31.783,86.987 C32.109,86.96 32.428,86.831 32.741,86.603 C33.053,86.373 33.34,86.003 33.602,85.492 C33.789,85.103 33.911,84.75 33.968,84.436 z M33.041,82.034 C33.443,82.239 33.794,82.471 34.094,82.728 C34.394,82.983 34.62,83.271 34.772,83.589 C34.924,83.907 34.991,84.261 34.973,84.649 C34.955,85.037 34.826,85.465 34.587,85.933 C34.363,86.371 34.101,86.72 33.8,86.979 C33.499,87.239 33.172,87.412 32.819,87.499 C32.466,87.586 32.09,87.594 31.691,87.525 C31.294,87.454 30.557,87.137 30.557,87.137 C30.504,87.114 30.42,87.075 30.369,87.049 L28.395,86.039 C28.344,86.014 28.324,85.95 28.35,85.899 L28.411,85.781 C28.436,85.73 28.502,85.701 28.557,85.718 L28.981,85.841 C29.036,85.858 29.102,85.829 29.127,85.778 L31.198,81.728 C31.224,81.677 31.208,81.607 31.164,81.571 L30.815,81.301 C30.771,81.266 30.755,81.195 30.781,81.146 L30.842,81.025 C30.868,80.975 30.931,80.954 30.981,80.981 L33.041,82.034" fill="#FFFFFE"/>
    <path d="M42.768,86.039 C42.755,85.848 42.761,85.815 42.755,85.68 C42.747,85.513 42.694,85.45 42.527,85.344 C42.462,85.302 42.388,85.268 42.311,85.233 C42.189,85.178 42.05,85.136 41.895,85.108 C41.611,85.057 41.344,85.06 41.097,85.116 C40.848,85.172 40.625,85.284 40.425,85.452 C40.227,85.619 40.056,85.842 39.914,86.122 C39.772,86.401 39.666,86.735 39.595,87.124 C39.445,87.949 39.504,88.592 39.771,89.053 C40.039,89.514 40.502,89.805 41.161,89.924 C41.354,89.959 41.563,89.973 41.789,89.964 C41.981,89.956 42.203,89.93 42.457,89.899 C42.588,89.882 42.601,89.979 42.601,89.979 L42.615,90.082 C42.615,90.082 42.628,90.202 42.528,90.239 C42.306,90.323 42.053,90.383 41.768,90.422 C41.438,90.467 41.079,90.454 40.687,90.383 C40.313,90.315 39.971,90.2 39.663,90.04 C39.354,89.879 39.1,89.665 38.9,89.398 C38.699,89.131 38.562,88.807 38.487,88.424 C38.413,88.042 38.422,87.596 38.515,87.084 C38.608,86.568 38.766,86.138 38.986,85.792 C39.206,85.447 39.473,85.179 39.784,84.984 C40.096,84.791 40.446,84.669 40.834,84.618 C41.222,84.568 41.633,84.582 42.067,84.661 C42.361,84.715 42.632,84.792 42.879,84.895 C43.051,84.967 43.213,85.039 43.365,85.114 C43.576,85.218 43.521,85.397 43.521,85.397 L43.295,86.144 C43.295,86.144 43.241,86.308 43.096,86.283 C42.968,86.261 42.891,86.245 42.891,86.245 C42.891,86.245 42.78,86.229 42.768,86.039" fill="#FFFFFE"/>
    <path d="M51.435,86.233 C51.377,86.051 51.376,86.017 51.338,85.887 C51.291,85.728 51.224,85.68 51.037,85.615 C50.964,85.59 50.884,85.573 50.801,85.558 C50.669,85.533 50.524,85.526 50.367,85.535 C50.078,85.552 49.82,85.618 49.593,85.733 C49.365,85.846 49.175,86.008 49.02,86.217 C48.866,86.427 48.754,86.684 48.682,86.989 C48.61,87.295 48.586,87.644 48.609,88.038 C48.659,88.875 48.869,89.486 49.238,89.871 C49.606,90.255 50.126,90.428 50.794,90.388 C50.99,90.376 51.196,90.34 51.413,90.278 C51.599,90.226 51.808,90.146 52.046,90.056 C52.17,90.009 52.206,90.1 52.206,90.1 L52.244,90.197 C52.244,90.197 52.285,90.311 52.197,90.371 C52.001,90.505 51.769,90.623 51.501,90.729 C51.192,90.85 50.839,90.922 50.442,90.945 C50.062,90.968 49.703,90.939 49.366,90.855 C49.028,90.772 48.73,90.624 48.472,90.412 C48.214,90.199 48.004,89.917 47.842,89.565 C47.679,89.21 47.581,88.774 47.551,88.255 C47.52,87.731 47.57,87.276 47.703,86.889 C47.835,86.502 48.03,86.177 48.287,85.915 C48.544,85.653 48.855,85.452 49.221,85.312 C49.585,85.17 49.988,85.086 50.428,85.061 C50.727,85.042 51.009,85.055 51.273,85.096 C51.457,85.124 51.632,85.156 51.797,85.192 C52.026,85.244 52.015,85.431 52.015,85.431 L51.972,86.21 C51.972,86.21 51.959,86.383 51.812,86.393 C51.682,86.401 51.604,86.403 51.604,86.403 C51.604,86.403 51.493,86.415 51.435,86.233" fill="#FFFFFE"/>
    <path d="M59.889,84.448 C59.794,84.281 59.785,84.249 59.721,84.131 C59.641,83.983 59.566,83.951 59.37,83.928 C59.293,83.918 59.212,83.919 59.127,83.922 C58.993,83.925 58.85,83.948 58.698,83.99 C58.42,84.067 58.181,84.186 57.983,84.345 C57.784,84.504 57.631,84.701 57.525,84.939 C57.418,85.176 57.362,85.452 57.356,85.765 C57.35,86.078 57.399,86.426 57.505,86.806 C57.729,87.614 58.062,88.167 58.503,88.466 C58.945,88.765 59.488,88.824 60.134,88.645 C60.322,88.593 60.516,88.514 60.716,88.408 C60.886,88.317 61.075,88.196 61.289,88.058 C61.4,87.985 61.454,88.067 61.454,88.067 L61.511,88.155 C61.511,88.155 61.575,88.257 61.502,88.334 C61.339,88.506 61.136,88.671 60.896,88.829 C60.62,89.014 60.29,89.158 59.907,89.265 C59.54,89.366 59.183,89.412 58.835,89.401 C58.488,89.391 58.166,89.31 57.869,89.156 C57.572,89.003 57.308,88.77 57.074,88.459 C56.84,88.147 56.654,87.741 56.516,87.24 C56.375,86.735 56.329,86.279 56.377,85.872 C56.426,85.466 56.548,85.108 56.744,84.798 C56.94,84.488 57.202,84.226 57.53,84.011 C57.857,83.797 58.233,83.631 58.659,83.513 C58.947,83.433 59.225,83.385 59.491,83.37 C59.677,83.359 59.855,83.355 60.024,83.355 C60.259,83.357 60.287,83.542 60.287,83.542 L60.409,84.313 C60.409,84.313 60.432,84.484 60.291,84.525 C60.165,84.561 60.09,84.58 60.09,84.58 C60.09,84.58 59.983,84.614 59.889,84.448" fill="#FFFFFE"/>
    <path d="M66.924,83.069 L64.414,81.931 C64.362,81.907 64.274,81.901 64.22,81.918 L63.843,82.035 C63.789,82.052 63.721,82.025 63.693,81.977 L63.627,81.859 C63.599,81.81 63.616,81.747 63.666,81.718 L65.472,80.69 C65.521,80.661 65.585,80.679 65.614,80.728 L65.68,80.845 C65.708,80.894 65.696,80.966 65.655,81.004 L65.431,81.21 C65.388,81.248 65.396,81.3 65.448,81.324 L67.237,82.176 L67.457,80.179 C67.463,80.121 67.424,80.089 67.37,80.105 L67.057,80.204 C67.002,80.222 66.935,80.195 66.907,80.146 L66.841,80.029 C66.812,79.98 66.83,79.916 66.879,79.888 L68.31,79.073 C68.359,79.045 68.423,79.063 68.451,79.111 L68.518,79.229 C68.546,79.277 68.534,79.349 68.491,79.387 L68.165,79.674 C68.122,79.712 68.081,79.788 68.076,79.845 L67.798,82.385 L70.58,83.68 C70.631,83.703 70.718,83.709 70.773,83.692 L71.157,83.571 C71.211,83.555 71.279,83.581 71.307,83.631 L71.373,83.747 C71.401,83.796 71.384,83.86 71.334,83.889 L69.521,84.922 C69.471,84.949 69.408,84.933 69.38,84.883 L69.314,84.767 C69.285,84.717 69.297,84.646 69.339,84.608 L69.583,84.388 C69.626,84.351 69.618,84.299 69.567,84.274 L67.478,83.274 L67.224,85.61 C67.217,85.667 67.257,85.699 67.311,85.684 L67.609,85.592 C67.664,85.575 67.731,85.602 67.76,85.651 L67.826,85.768 C67.854,85.817 67.837,85.88 67.788,85.909 L66.35,86.728 C66.3,86.756 66.237,86.738 66.209,86.69 L66.143,86.573 C66.114,86.524 66.126,86.452 66.169,86.414 L66.495,86.127 C66.538,86.09 66.579,86.013 66.585,85.956 L66.924,83.069" fill="#FFFFFE"/>
    <path d="M73.146,75.436 C73.183,75.479 73.186,75.551 73.151,75.595 L72.88,75.944 C72.846,75.989 72.848,76.062 72.886,76.104 L75.895,79.515 C75.932,79.558 76.003,79.569 76.052,79.54 L76.432,79.316 C76.481,79.287 76.552,79.298 76.589,79.341 L76.678,79.44 C76.716,79.483 76.711,79.549 76.669,79.587 L75.122,80.951 C75.079,80.989 75.014,80.985 74.976,80.942 L74.887,80.842 C74.85,80.8 74.848,80.728 74.882,80.683 L75.153,80.334 C75.187,80.289 75.185,80.217 75.147,80.174 L72.139,76.763 C72.101,76.72 72.03,76.708 71.981,76.737 L71.601,76.962 C71.552,76.991 71.481,76.98 71.443,76.937 L71.355,76.837 C71.317,76.794 71.321,76.729 71.364,76.691 L72.911,75.326 C72.954,75.288 73.02,75.293 73.057,75.335 L73.146,75.436" fill="#FFFFFE"/>
    <path d="M18.33,21.404 C18.29,21.446 18.261,21.472 18.261,21.472 L16.619,19.918 L16.913,19.613 C16.952,19.571 17.018,19.505 17.059,19.466 C17.059,19.466 17.238,19.291 17.364,19.197 C17.49,19.104 17.619,19.044 17.75,19.016 C17.882,18.988 18.017,18.997 18.157,19.043 C18.296,19.09 18.44,19.185 18.589,19.326 C18.915,19.637 19.07,19.938 19.052,20.232 C19.035,20.526 18.661,21.037 18.661,21.037 C18.627,21.083 18.568,21.154 18.529,21.195 L18.33,21.404 z M21.84,21.981 C21.895,21.991 21.974,21.967 22.013,21.925 L22.873,21.021 C22.912,20.979 22.911,20.914 22.869,20.875 L22.772,20.782 C22.73,20.742 22.659,20.737 22.612,20.77 L22.284,20.997 C22.238,21.03 22.153,21.049 22.097,21.04 L19.529,20.622 C19.473,20.613 19.447,20.563 19.471,20.512 C19.471,20.512 19.785,19.834 19.772,19.481 C19.76,19.129 19.602,18.809 19.3,18.521 C19.083,18.315 18.866,18.196 18.646,18.162 C18.427,18.13 18.213,18.152 18.004,18.23 C17.795,18.308 17.594,18.425 17.4,18.581 C17.206,18.737 16.932,19.008 16.932,19.008 C16.891,19.048 16.825,19.114 16.786,19.155 L15.276,20.742 C15.237,20.784 15.238,20.85 15.279,20.889 L15.377,20.981 C15.418,21.021 15.49,21.026 15.536,20.993 L15.899,20.732 C15.945,20.699 16.017,20.704 16.058,20.743 L19.362,23.888 C19.403,23.927 19.411,23.998 19.381,24.046 L19.139,24.421 C19.107,24.469 19.116,24.54 19.157,24.58 L19.255,24.673 C19.296,24.712 19.362,24.71 19.401,24.669 L20.816,23.182 C20.855,23.141 20.854,23.075 20.813,23.035 L20.715,22.942 C20.674,22.903 20.603,22.898 20.556,22.932 L20.199,23.187 C20.153,23.219 20.081,23.215 20.04,23.175 L18.518,21.727 L18.743,21.489 C18.783,21.448 18.86,21.423 18.917,21.434 L21.84,21.981" fill="#FFFFFE"/>
  </g>
</svg>
